<?xml version="1.0" standalone="no"?>
<!DOCTYPE svg PUBLIC "-//W3C//DTD SVG 20010904//EN"
 "http://www.w3.org/TR/2001/REC-SVG-20010904/DTD/svg10.dtd">
<svg version="1.0" xmlns="http://www.w3.org/2000/svg"
 width="100.000000pt" height="100.000000pt" viewBox="0 0 100.000000 100.000000"
 preserveAspectRatio="xMidYMid meet">
<metadata>
Created by potrace 1.14, written by Peter Selinger 2001-2017
</metadata>
<g transform="translate(0.000000,100.000000) scale(0.100000,-0.100000)"
fill="#000000" stroke="none">
<path d="M35 958 c-3 -7 -4 -218 -3 -468 l3 -455 465 0 465 0 0 465 0 465
-463 3 c-365 2 -464 0 -467 -10z m366 -65 c2 -84 -2 -288 -6 -291 -3 -3 -197
-5 -297 -3 l-28 1 0 165 0 165 165 0 165 0 1 -37z m159 -127 l0 -164 -32 -3
c-18 -2 -45 -3 -60 -1 l-28 3 0 165 0 164 60 0 60 0 0 -164z m370 -1 c0 -158
-1 -165 -20 -166 -11 0 -67 0 -125 0 -58 0 -123 0 -145 0 l-40 1 0 165 0 165
165 0 165 0 0 -165z m-529 -248 c7 -82 17 -77 -167 -77 l-164 0 0 59 0 60 164
0 164 1 3 -43z m154 -17 l0 -55 -57 -3 -56 -3 -1 61 0 61 57 -3 57 -3 0 -55z
m375 1 l0 -60 -165 0 -165 -1 0 59 0 60 165 0 165 1 0 -59z m-534 -104 c4 -4
7 -200 5 -294 l-1 -33 -165 0 -165 0 0 164 0 165 28 3 c38 4 293 0 298 -5z
m163 -163 l1 -164 -60 0 -59 0 0 164 -1 165 33 3 c17 2 44 1 59 -1 l27 -3 0
-164z m349 167 c22 -1 22 -2 22 -166 l0 -165 -165 0 -165 0 0 164 c0 163 0
165 23 168 18 2 185 2 285 -1z"/>
<path d="M173 871 c-110 -69 -63 -231 67 -231 71 0 120 53 120 130 0 90 -110
149 -187 101z m115 -36 c30 -22 43 -73 25 -107 -26 -54 -97 -65 -138 -23 -72
71 29 188 113 130z"/>
<path d="M720 882 c-53 -24 -80 -62 -80 -116 0 -49 18 -83 55 -106 114 -70
244 54 175 167 -31 51 -101 77 -150 55z m91 -45 c69 -53 37 -157 -48 -157 -74
0 -112 92 -58 145 27 27 79 33 106 12z"/>
<path d="M194 355 c-103 -44 -110 -180 -13 -231 78 -40 179 20 179 106 0 49
-22 95 -52 111 -40 22 -84 27 -114 14z m101 -60 c53 -52 15 -145 -59 -145 -35
1 -57 15 -74 47 -46 85 65 167 133 98z"/>
<path d="M698 345 c-15 -9 -35 -30 -44 -48 -59 -114 65 -234 173 -167 105 64
69 217 -54 227 -31 2 -58 -2 -75 -12z m127 -50 c42 -41 31 -105 -22 -133 -84
-45 -162 56 -102 132 28 36 89 37 124 1z"/>
</g>
</svg>
